<?xml version="1.0" standalone="no"?>
<!DOCTYPE svg PUBLIC "-//W3C//DTD SVG 20010904//EN"
 "http://www.w3.org/TR/2001/REC-SVG-20010904/DTD/svg10.dtd">
<svg version="1.0" xmlns="http://www.w3.org/2000/svg"
 width="40" height="40" viewBox="0 0 512 512"
 preserveAspectRatio="xMidYMid meet">

<g transform="translate(0.000000,512.000000) scale(0.100000,-0.100000)"
fill="#000000" stroke="none">
<path d="M2455 4544 c-191 -46 -300 -218 -229 -362 l22 -42 -22 -5 c-11 -2
-59 -9 -106 -15 -288 -38 -635 -153 -870 -290 -113 -65 -246 -168 -335 -259
-44 -44 -87 -81 -97 -81 -9 0 -26 -12 -38 -27 -18 -23 -21 -37 -17 -75 7 -59
37 -118 77 -151 24 -21 30 -33 30 -66 0 -23 -3 -41 -7 -41 -4 0 -73 28 -153
62 -117 50 -157 63 -210 66 -59 3 -70 0 -120 -30 -44 -27 -60 -45 -87 -96 -54
-104 -42 -205 33 -277 33 -32 83 -58 262 -133 122 -51 235 -97 252 -103 l30
-11 0 -483 c0 -453 1 -487 20 -547 37 -122 139 -227 256 -265 34 -11 103 -17
222 -21 103 -2 172 -8 172 -14 0 -21 79 -178 121 -239 57 -86 168 -200 260
-269 137 -102 317 -175 493 -199 465 -65 927 187 1127 614 22 46 39 87 39 93
0 6 68 11 173 14 142 4 182 8 230 26 119 43 209 138 248 261 18 59 19 95 19
544 l0 482 48 19 c212 86 453 192 481 213 45 34 81 114 81 180 0 81 -50 168
-120 211 -50 30 -61 33 -120 30 -53 -3 -93 -16 -210 -66 -80 -34 -149 -62
-153 -62 -4 0 -7 18 -7 41 0 33 6 45 30 66 40 33 70 92 77 151 4 38 1 52 -17
75 -12 15 -28 27 -37 27 -9 0 -66 48 -127 108 -131 126 -252 210 -431 297
-214 105 -459 180 -720 221 -60 9 -111 18 -113 19 -1 1 7 22 18 46 23 52 26
135 6 183 -61 147 -279 229 -481 180z m247 -168 c86 -41 110 -99 63 -155 -53
-62 -199 -85 -298 -47 -43 16 -107 74 -107 97 0 22 30 67 57 84 71 47 209 57
285 21z m291 -415 c412 -67 741 -201 995 -404 34 -28 62 -54 62 -59 0 -4 -670
-8 -1490 -8 -820 0 -1490 4 -1490 8 0 8 88 81 160 133 151 109 403 217 650
279 257 64 402 79 725 75 203 -2 288 -8 388 -24z m1116 -648 c-12 -13 -15
-164 -19 -852 l-5 -836 -22 -42 c-12 -22 -39 -55 -60 -72 -56 -46 -118 -61
-256 -61 l-119 0 6 38 c32 224 -1 435 -99 639 -153 315 -464 542 -813 593
l-82 12 0 79 0 79 107 0 c96 0 109 2 130 22 39 36 30 99 -18 123 -41 22 -557
22 -598 0 -47 -24 -56 -83 -19 -122 20 -21 30 -23 130 -23 l108 0 0 -79 0 -79
-77 -11 c-217 -32 -430 -134 -589 -283 -256 -240 -380 -599 -328 -950 l6 -38
-119 0 c-138 0 -200 15 -256 61 -21 17 -48 50 -60 72 l-22 42 -5 836 c-4 688
-7 839 -19 852 -12 16 97 17 1549 17 1452 0 1561 -1 1549 -17z m-3417 -287
l173 -74 3 -86 c1 -47 1 -86 -2 -86 -21 0 -415 176 -428 192 -39 45 -3 128 56
128 13 0 102 -33 198 -74z m3983 49 c30 -29 33 -74 8 -103 -14 -16 -408 -192
-429 -192 -3 0 -3 39 -2 86 l3 86 170 73 c94 41 183 74 198 74 17 1 38 -9 52
-24z m-1890 -529 c345 -93 606 -365 683 -711 25 -113 20 -299 -11 -417 -103
-391 -447 -674 -847 -695 -533 -28 -976 393 -973 927 1 192 48 348 152 506
136 206 343 346 591 399 86 19 322 13 405 -9z"/>
<path d="M1131 2904 c-18 -23 -21 -41 -21 -133 0 -93 3 -110 20 -128 27 -29
56 -37 89 -23 41 16 51 49 51 159 0 84 -3 102 -21 125 -16 20 -29 26 -59 26
-30 0 -43 -6 -59 -26z"/>
<path d="M1638 2532 c-149 -149 -157 -165 -117 -216 15 -20 29 -26 57 -26 34
0 47 10 169 133 75 75 135 143 138 158 9 38 -36 89 -78 89 -27 0 -51 -20 -169
-138z"/>
<path d="M3255 2638 c-20 -23 -25 -38 -20 -57 3 -15 63 -83 138 -158 122 -123
135 -133 169 -133 28 0 42 6 57 26 40 51 32 67 -117 216 -118 118 -142 138
-169 138 -23 0 -38 -9 -58 -32z"/>
<path d="M1131 2494 c-20 -26 -21 -38 -21 -388 0 -211 4 -376 10 -397 22 -79
100 -154 172 -165 30 -5 41 -2 62 19 33 33 35 80 4 107 -13 11 -38 33 -55 49
l-33 29 0 360 c0 348 -1 360 -21 386 -16 20 -29 26 -59 26 -30 0 -43 -6 -59
-26z"/>
<path d="M2501 2474 c-12 -15 -21 -37 -21 -49 0 -12 9 -34 21 -49 16 -20 29
-26 59 -26 30 0 43 6 59 26 12 15 21 37 21 49 0 12 -9 34 -21 49 -16 20 -29
26 -59 26 -30 0 -43 -6 -59 -26z"/>
<path d="M1959 2251 c-17 -18 -29 -40 -29 -56 0 -36 41 -75 80 -75 39 0 80 39
80 75 0 32 -50 85 -80 85 -12 0 -35 -13 -51 -29z"/>
<path d="M3085 2270 c-11 -4 -152 -140 -312 -302 -318 -319 -320 -322 -268
-373 16 -17 35 -25 57 -25 29 0 61 29 330 298 321 321 323 323 276 376 -27 29
-55 38 -83 26z"/>
<path d="M1753 1720 c-82 -33 -57 -150 32 -150 79 0 104 109 34 145 -32 17
-35 17 -66 5z"/>
<path d="M3305 1719 c-51 -29 -61 -90 -22 -127 46 -44 121 -19 133 44 11 56
-62 110 -111 83z"/>
<path d="M1984 1170 c-28 -11 -54 -48 -54 -76 0 -12 9 -33 21 -48 29 -37 89
-37 118 0 27 34 27 67 -1 98 -27 29 -55 38 -84 26z"/>
<path d="M3084 1170 c-28 -11 -54 -48 -54 -76 0 -12 9 -33 21 -48 29 -37 89
-37 118 0 27 34 27 67 -1 98 -27 29 -55 38 -84 26z"/>
<path d="M2525 938 c-51 -29 -60 -84 -20 -123 48 -49 135 -15 135 52 -1 32
-15 55 -47 71 -27 15 -42 15 -68 0z"/>
</g>
</svg>
