<?xml version="1.0" standalone="no"?>
<!DOCTYPE svg PUBLIC "-//W3C//DTD SVG 20010904//EN"
 "http://www.w3.org/TR/2001/REC-SVG-20010904/DTD/svg10.dtd">
<svg version="1.0" xmlns="http://www.w3.org/2000/svg"
 width="40" height="40" viewBox="0 0 256 256"
 preserveAspectRatio="xMidYMid meet">

<g transform="translate(0.000000,256.000000) scale(0.100000,-0.100000)"
fill="#000000" stroke="none">
<path d="M1728 2311 c-60 -55 -109 -131 -137 -212 l-19 -54 -147 -3 c-131 -2
-154 0 -204 19 -42 16 -85 23 -172 27 -99 4 -127 1 -200 -19 -75 -21 -112 -24
-351 -29 l-268 -5 -32 -33 -33 -32 0 -690 0 -690 33 -32 32 -33 248 -5 c237
-5 249 -6 297 -30 41 -20 65 -24 135 -24 72 -1 94 4 144 27 l58 27 284 0 c264
0 284 -1 284 -17 0 -10 3 -28 6 -39 4 -15 -4 -32 -25 -57 -38 -42 -40 -81 -8
-128 50 -74 149 -103 216 -63 51 30 56 48 53 181 l-3 122 205 3 206 3 32 33
33 32 0 690 0 690 -33 32 -32 33 -218 3 -218 3 -22 141 c-13 78 -27 149 -33
159 -17 32 -54 22 -111 -30z m76 -211 c23 -157 35 -420 36 -762 l0 -288 -123
0 -122 0 3 228 c7 613 33 783 142 932 40 54 40 53 64 -110z m-597 -119 c128
-57 217 -234 198 -390 -13 -106 -40 -156 -140 -260 -51 -54 -101 -113 -111
-132 -29 -54 -24 -145 14 -262 39 -118 40 -157 6 -225 -55 -111 -176 -182
-288 -168 -154 18 -331 170 -441 379 -85 161 -109 303 -81 484 45 298 210 499
476 580 64 19 93 22 195 20 100 -2 129 -7 172 -26z m-701 -103 c-44 -46 -98
-112 -119 -148 -77 -134 -126 -353 -113 -510 16 -197 108 -397 255 -552 l63
-68 -164 0 c-114 0 -168 4 -176 12 -17 17 -17 1319 0 1336 8 8 61 12 174 12
l161 0 -81 -82z m1040 35 c-16 -112 -25 -318 -28 -611 -3 -269 -1 -314 12
-322 8 -5 49 -10 92 -10 l76 0 -14 -57 c-8 -32 -17 -115 -21 -185 l-6 -128
-228 0 -229 0 30 47 c61 96 64 157 15 313 -19 61 -35 123 -35 136 0 48 31 97
120 189 100 103 131 159 150 265 22 119 -9 261 -78 363 l-31 47 91 0 91 0 -7
-47z m762 35 c17 -17 17 -1319 0 -1336 -8 -8 -67 -12 -199 -12 l-186 0 -6 648
c-4 356 -9 662 -13 680 l-6 32 199 0 c141 0 202 -3 211 -12z m-468 -1231 c0
-140 3 -287 6 -328 7 -89 -5 -113 -57 -111 -24 1 -41 9 -57 28 -21 24 -22 28
-8 43 8 9 22 33 31 54 14 33 14 45 -1 129 -22 126 -13 303 22 426 2 6 17 12
34 12 l30 0 0 -253z"/>
<path d="M838 1914 c-150 -36 -268 -132 -336 -274 -73 -152 -95 -362 -43 -413
41 -41 131 -24 308 59 97 44 175 108 228 185 16 22 62 63 104 93 174 122 222
229 136 305 -19 16 -58 37 -87 46 -64 19 -231 19 -310 -1z m288 -75 c28 -7 51
-21 61 -35 14 -23 14 -27 -10 -63 -14 -22 -56 -61 -94 -88 -73 -52 -121 -98
-196 -186 -39 -47 -66 -66 -140 -102 -105 -50 -214 -88 -228 -80 -14 9 -11
100 6 180 53 248 215 383 463 384 51 1 113 -4 138 -10z"/>
<path d="M1182 1590 c-73 -49 -177 -158 -186 -195 -9 -34 15 -72 50 -81 34 -9
98 3 144 26 99 51 163 199 114 268 -22 32 -54 27 -122 -18z m52 -82 c-13 -43
-47 -81 -91 -100 -54 -24 -65 -17 -32 18 25 28 117 104 126 104 2 0 1 -10 -3
-22z"/>
<path d="M871 1260 c-170 -36 -337 -124 -367 -195 -29 -71 27 -178 167 -316
109 -109 171 -142 268 -143 79 0 124 22 163 81 58 88 59 153 7 264 -29 60 -31
68 -24 139 11 114 10 130 -14 153 -17 17 -35 22 -88 24 -38 1 -88 -2 -112 -7z
m133 -164 c-7 -91 -6 -96 24 -160 52 -112 51 -159 -5 -218 -74 -78 -209 -22
-351 145 -88 103 -112 166 -74 200 51 46 280 126 365 126 l47 1 -6 -94z"/>
<path d="M2048 1714 c-57 -30 -58 -40 -58 -434 0 -396 1 -405 60 -435 37 -19
103 -19 140 0 59 30 60 39 60 435 0 396 -1 405 -60 435 -37 19 -107 19 -142
-1z m110 -76 c17 -17 17 -699 0 -716 -15 -15 -61 -15 -76 0 -17 17 -17 699 0
716 7 7 24 12 38 12 14 0 31 -5 38 -12z"/>
</g>
</svg>
