<?xml version="1.0" encoding="utf-8"?>
<svg viewBox="0 0 21 20" xmlns="http://www.w3.org/2000/svg">
  <path d="M 9.755 2.14 C 9.986 1.621 10.102 1.361 10.263 1.281 C 10.403 1.211 10.568 1.211 10.708 1.281 C 10.869 1.361 10.985 1.621 11.216 2.14 L 13.06 6.277 C 13.129 6.43 13.163 6.507 13.216 6.566 C 13.263 6.618 13.32 6.66 13.384 6.688 C 13.456 6.72 13.54 6.729 13.707 6.747 L 18.211 7.222 C 18.777 7.282 19.06 7.312 19.185 7.44 C 19.295 7.552 19.346 7.708 19.323 7.863 C 19.297 8.041 19.085 8.231 18.663 8.612 L 15.298 11.644 C 15.173 11.757 15.111 11.813 15.071 11.881 C 15.036 11.942 15.015 12.009 15.007 12.079 C 14.999 12.158 15.016 12.24 15.051 12.404 L 15.991 16.835 C 16.109 17.391 16.168 17.67 16.085 17.829 C 16.012 17.968 15.879 18.064 15.725 18.09 C 15.548 18.12 15.301 17.978 14.809 17.694 L 10.885 15.431 C 10.74 15.347 10.667 15.305 10.589 15.289 C 10.521 15.274 10.45 15.274 10.382 15.289 C 10.304 15.305 10.231 15.347 10.086 15.431 L 6.162 17.694 C 5.67 17.978 5.424 18.12 5.246 18.09 C 5.092 18.064 4.959 17.968 4.887 17.829 C 4.803 17.67 4.862 17.391 4.98 16.835 L 5.92 12.404 C 5.955 12.24 5.972 12.158 5.964 12.079 C 5.957 12.009 5.935 11.942 5.9 11.881 C 5.86 11.813 5.798 11.757 5.673 11.644 L 2.308 8.612 C 1.886 8.231 1.675 8.041 1.648 7.863 C 1.626 7.708 1.676 7.552 1.786 7.44 C 1.912 7.312 2.194 7.282 2.76 7.222 L 7.264 6.747 C 7.431 6.729 7.515 6.72 7.587 6.688 C 7.651 6.66 7.708 6.618 7.755 6.566 C 7.808 6.507 7.842 6.43 7.911 6.277 L 9.755 2.14 Z" stroke-width="2" stroke-linecap="round" stroke-linejoin="round" style="stroke: rgb(255, 205, 0); fill: rgb(255, 205, 0);"/>
</svg>